<svg id="Layer_1" data-name="Layer 1" xmlns="http://www.w3.org/2000/svg" viewBox="0 0 379.82 419.17"><path d="M173.33,311.73c3.46-.22,6.89-.45,10.33-.65a362.64,362.64,0,0,0,52.11-6.57A310.94,310.94,0,0,0,294,286.9c2.85-1.2,5.61-2.6,8.5-3.69a4.7,4.7,0,0,1,3.06.21c9.27,3.57,18.35,7.68,27.78,10.74,12.16,3.95,24.58,7.1,36.9,10.54,3.44,1,6.94,1.71,10.71,2.63-2.53,3.46-4.89,6.81-7.42,10a2.86,2.86,0,0,1-2.35.45,357.6,357.6,0,0,1-52.92-15.38c-4.6-1.77-9.07-3.86-13.64-5.7a3.2,3.2,0,0,0-2.22.21c-21.72,9.6-44.39,16-67.67,20.43a353.17,353.17,0,0,1-46.83,6c-2.19.12-2.66.95-2.7,2.95-.26,12.75-.31,25.5,1.3,38.17,2.8,21.95,8.46,43.09,18.2,63.07A209.37,209.37,0,0,0,246.77,486c7.47,7.29,15.69,13.8,23.58,20.66.32.28.69.5,1,.76-.78-5-1.67-9.86-2.3-14.77a106.1,106.1,0,0,1,1-32.11,128.68,128.68,0,0,1,25.26-56.92,167.77,167.77,0,0,1,24.16-25.11c15.79-13.48,31.81-26.7,47.38-40.42,12.12-10.67,22.59-22.85,29.8-37.46a76.54,76.54,0,0,0,7.42-45.92,4.87,4.87,0,0,1,.32-2.76c1.31,3.67,2.84,7.29,3.91,11,4.85,17,3.81,33.9-1.64,50.63-5.2,16-14.2,29.64-25,42.32-12.43,14.67-27.14,26.95-41.35,39.78-13.07,11.8-25.78,24-35.74,38.68-8.95,13.2-15.48,27.45-17.71,43.34a96.37,96.37,0,0,0,3.2,41.51c1.93,6.39,4.41,12.61,6.63,18.91.4,1.14.78,2.29,1.27,3.75-28.28-17.09-53.26-37.51-74.49-62.3a215.74,215.74,0,0,1-33.17-52.44A207.5,207.5,0,0,1,174.46,371a267.69,267.69,0,0,1-1.65-54C172.91,315.29,173.14,313.61,173.33,311.73Z" transform="translate(-116.96 -251.99)"/><path d="M412.81,327.83c-1.13,6.55-1.9,13.18-3.46,19.63-4.22,17.44-13.6,32.11-26.18,44.57-10.61,10.5-21.9,20.32-33.05,30.28-12.92,11.55-24,24.51-31.44,40.29a91.57,91.57,0,0,0-8.6,43.77,106.19,106.19,0,0,0,7.74,34.93c.25.61.48,1.23.71,1.85,0,0-.06.12-.22.39-1.74-2.88-3.38-5.7-5.14-8.44-7.83-12.23-13.27-25.41-15.38-39.82-3.21-21.89,1.38-42.11,13.35-60.69,8.6-13.34,19.62-24.41,32-34.2,12.6-9.94,25.42-19.62,37.79-29.83,11-9.05,20.63-19.36,26.72-32.5,1.26-2.73,2.31-5.56,3.46-8.34.29-.7.6-1.4.9-2.1Z" transform="translate(-116.96 -251.99)"/><path d="M368.48,587.12c-3,8.77-5.89,17-8.69,25.25-1.7,5-3.24,10.07-5,15.06a2.72,2.72,0,0,1-2,1.34c-3.9.14-7.81,0-11.71.14a2.18,2.18,0,0,1-2.49-1.83q-4-12.36-8.14-24.7-5.71-17-11.49-34c-.12-.33-.2-.68-.46-1.56,4.93,0,9.6,0,14.26.08.45,0,1,1,1.27,1.71q6.47,20.27,12.86,40.54a12.57,12.57,0,0,0,.58,1.2c.8-2.11,1.5-3.81,2.09-5.56,4.07-12.12,8.11-24.26,12.23-36.36a2.47,2.47,0,0,1,1.8-1.33c3.89-.12,7.79-.06,11.84-.06q7.1,21.71,14.21,43.42l.54,0c4.73-14.39,9.46-28.78,14.25-43.32h14.09c-.87,2.79-1.63,5.49-2.54,8.15q-8.93,26.07-17.89,52.13a1.91,1.91,0,0,1-2.18,1.58q-5.85-.18-11.71,0a2.14,2.14,0,0,1-2.52-1.74c-3.25-10-6.6-20-9.9-29.94C370.69,594.05,369.68,590.85,368.48,587.12Z" transform="translate(-116.96 -251.99)"/><path d="M321.2,531.41a92.3,92.3,0,0,1-2.87-27.94c1.55-24.53,12.43-44.79,29-62.3,9.59-10.14,21-18.23,31.94-26.82,9.72-7.64,19.59-15.15,27.78-24.52,7.76-8.88,13.67-18.78,15.73-30.62a75.61,75.61,0,0,1,1.82-9.28c.19,3.17.54,6.34.55,9.52.09,22.44-9,41-24.06,57.13-11.63,12.48-24.92,23.14-37.58,34.49C353.65,459.88,344.12,469,337,480.2c-6.51,10.19-11.46,21.08-13.45,33.1C322.47,519.55,321.89,525.87,321.2,531.41Z" transform="translate(-116.96 -251.99)"/><path d="M163.39,596.52c9.43,3.68,11.91,12.12,10.07,20-1.39,6-5.78,9.42-11.38,10.87a60.23,60.23,0,0,1-13.51,1.77c-10.16.25-20.32.09-30.48.09-.28,0-.56-.06-1.13-.13v-62.4c5,0,9.93-.09,14.91,0,8,.16,16,.21,24,.78,5.73.41,10.7,2.87,13.61,8.19C173.6,583.21,171.21,591.27,163.39,596.52Zm-32.56,21.72c4.15,0,8,0,11.93,0,3.52-.06,7.06-.08,10.56-.4a6.75,6.75,0,0,0,6.46-5.9,6.93,6.93,0,0,0-3.95-7.64,15,15,0,0,0-5.69-1.41c-6-.21-12-.14-18.08-.16a6.93,6.93,0,0,0-1.23.22Zm0-40.93v15.28c5.52,0,10.87,0,16.22,0a22.65,22.65,0,0,0,2.85-.23,12.2,12.2,0,0,0,2.14-.54A7.07,7.07,0,0,0,157,585c-.11-3.45-2.16-6.49-5.47-6.76C144.66,577.64,137.78,577.58,130.86,577.31Z" transform="translate(-116.96 -251.99)"/><path d="M325,543.1c-1.12-16.66,3.18-31.33,11.57-44.87a106.58,106.58,0,0,1,23.93-26.7c10.7-8.64,21.79-16.81,32.67-25.24a179.25,179.25,0,0,0,23.76-21.74,78.05,78.05,0,0,0,19.43-42.61,18.29,18.29,0,0,1,.34,2.42c.49,25.92-8.47,48.2-25.84,67.29-9.62,10.59-21,19.1-32.17,27.87-12.67,10-25.6,19.59-36.43,31.68a74.82,74.82,0,0,0-16.69,30.51C325.49,542,325.35,542.23,325,543.1Z" transform="translate(-116.96 -251.99)"/><path d="M253.92,628.84c-4.55,0-8.82.06-13.09-.06a2.57,2.57,0,0,1-1.85-1.3c-1.64-3.46-3.19-7-4.61-10.5a2.08,2.08,0,0,0-2.24-1.58c-8.76,0-17.52-.08-26.28,0-.56,0-1.35.75-1.62,1.34-1.44,3.14-2.9,6.29-4,9.54-.78,2.18-2,2.84-4.24,2.72-3.57-.21-7.17-.06-11.19-.06,1.27-3.06,2.34-5.77,3.51-8.43q10.74-24.56,21.51-49.11c2.09-4.78,2.08-4.76,7.29-4.68,2.8,0,5.6-.1,8.4,0a2.79,2.79,0,0,1,2.06,1.31q13,29.6,25.84,59.25C253.53,627.69,253.65,628.11,253.92,628.84Zm-34.69-48.22c-3.4,8.16-6.62,15.93-9.89,23.79h19.79C225.8,596.42,222.6,588.72,219.23,580.62Z" transform="translate(-116.96 -251.99)"/><path d="M496.79,628.93c-4.83,0-9.23.08-13.63-.08-.73,0-1.72-1-2.06-1.8-1.43-3.22-2.7-6.52-4-9.82a2.2,2.2,0,0,0-2.43-1.66c-8.69.07-17.38,0-26.07.11a2.85,2.85,0,0,0-2.07,1.36c-1.62,3.38-3.07,6.84-4.55,10.28a2.21,2.21,0,0,1-2.47,1.58c-3.95-.16-7.9-.06-12.16-.06,2.33-5.47,4.46-10.6,6.7-15.69,6.57-14.94,13.22-29.85,19.75-44.8a2,2,0,0,1,2.27-1.42c3.61.07,7.24.23,10.82,0,2.26-.18,3.06.81,3.82,2.62q5.12,12.07,10.4,24.08C486.27,605.21,491.43,616.82,496.79,628.93ZM472,604.87c-3.36-8.15-6.59-16-10-24.32l-10.36,24.32Z" transform="translate(-116.96 -251.99)"/><path d="M259.66,357.29c7.43-1.71,14.83-3.62,22.32-5.08,7.24-1.4,14.45-2.85,21.23-5.83,8.54-3.78,16.53-8.44,22.48-15.9,1.16-1.45,2-3.18,3.44-4.68a76.26,76.26,0,0,1-2,8.14c-4.3,11.89-12.94,19.48-24.82,22.86-10.44,3-21.22,4.77-31.79,7.32-5.77,1.39-11.51,3-17.1,5-4,1.4-7.15,4.22-9.82,7.61s-5.41,6.42-8.3,9.46c-3.08,3.25-5.94,4-8.58,2.57a9.19,9.19,0,0,1-4.24-9.69c1.34-6.67,5.09-12,9.77-16.7,6.53-6.59,14.83-9.89,23.53-12.41,10.48-3,20.9-6.22,30.22-12.11,6.81-4.3,12.65-9.59,15.9-17.22.23-.54.36-1.12.57-1.66a4.28,4.28,0,0,1,.89-1.49c-.17,4.46-.19,8.88-2.37,13-5.48,10.41-14.12,16.9-25,20.72-5.48,1.92-10.91,3.94-16.37,5.91Z" transform="translate(-116.96 -251.99)"/><path d="M268.36,566.86H304.5c0,5.82,0,11.47,0,17.12-.08,8.9.13,17.83-.45,26.7-.63,9.69-6.29,17.08-16.24,18.75-8.7,1.46-16.83.12-24-5.29-2.5-1.88-2.65-3.07-.78-5.53s3.81-4.65,5.48-6.68c2.95,1.84,5.52,4.08,8.51,5.18,7.74,2.82,12.78-.13,12.93-8.52.19-9.93.05-19.87.05-30.07H268.36Z" transform="translate(-116.96 -251.99)"/><path d="M278.86,411.8c-1.13-2.42-2-4.32-2.9-6.2-2.21-4.6-6.18-7-10.85-8.31a32.57,32.57,0,0,1-11-5.34c-2.23-1.68-5.36-2.23-8.14-3.11-2.48-.78-5.05-1.32-7.92-2,1.86-1.91,3.77-2.35,5.71-1.69,5.94,2,10.56-.71,14.46-5.73,1.32-1.72,2-3.89,3.25-5.72a9.66,9.66,0,0,1,3-3.25c12-6.6,24.51-8,37.78-4.49,4,1,8.29.8,12.46,1.11a4.2,4.2,0,0,1,2.16.4l-10,1.85,5.14,6.49c-9.06-2.77-17.76-4.65-26.93-2.28,6.62.09,12.38,1.67,15.37,8.5-5.07-5.82-11.41-5.89-18.26-4.15,7.75.78,11.87,5.95,15.05,12.29-2.47-2.46-5.24-4.52-8.73-5-5.94-.89-11.91-1.56-17.94-1.86,1.64.34,3.27.75,4.92,1a22,22,0,0,1,10.3,4.79,13.91,13.91,0,0,1,3.5,4.89,35,35,0,0,1,1.63,6c-.33-.12-.45-.13-.46-.17-1.63-4.65-5.37-6.72-9.74-8.11-3.78-1.2-7.51-2.55-11.28-3.8a6.57,6.57,0,0,0-2.29-.31,50.87,50.87,0,0,1,5.66,2.73,10.51,10.51,0,0,1,4.8,7.85C278.1,402.47,278.4,406.85,278.86,411.8Z" transform="translate(-116.96 -251.99)"/><path d="M221.22,430.16c-7-10.68-11.44-21.65-3.57-34.72a13,13,0,0,1,1.64-2.08c1.69-1.85,3.85-2.95,6.3-2.33s3.6,2.81,3.86,5.6c.62-.49,1.13-.86,1.59-1.27,3.34-3,7.09-3.5,10.66-.85,8,6,15.13,12.83,18.88,22.47,1.8,4.63,1.73,9.47,2,13.63-1.38-2.94-2.64-6.6-4.68-9.74-3.21-4.95-7.41-9.12-13.38-10.53-8.82-2.08-15.69.62-21.68,7.46-2.9,3.32-2,7.63-1.67,11.66C221.16,429.67,221.19,429.88,221.22,430.16Z" transform="translate(-116.96 -251.99)"/><path d="M347.32,670.41c-2.18,0-4,.1-5.85,0a3,3,0,0,1-1.91-1.14c-1.48-2.1-2.76-4.35-4.23-6.46a2.87,2.87,0,0,0-1.84-1.22c-2.18-.16-4.38-.06-6.8-.06v8.8h-6.43V639.06c6,0,11.9-.32,17.72.1,4.48.33,8.25,4.5,8.88,8.66.85,5.57-1.08,9.51-6.09,12.35,1,1.66,2.06,3.34,3.12,5S346,668.46,347.32,670.41Zm-20.41-25.95v11c2.95,0,5.59.08,8.23,0a5,5,0,0,0,5.23-5.09c.14-3.14-1.66-5.62-4.71-5.88S329.82,644.46,326.91,644.46Z" transform="translate(-116.96 -251.99)"/><path d="M201.09,638.71h22.57a2,2,0,0,1,.58.19v5.23H207.37v7.57h14.26V657H207.38v8.1h17.25v5.29H201.09Z" transform="translate(-116.96 -251.99)"/><path d="M278,639.39h6.22v5.35c0,4.27,0,8.54.05,12.81.12,5.67,3.65,8.61,9.07,7.67a6.45,6.45,0,0,0,5.57-6.67c.16-6.1.08-12.22.11-18.33,0-.35,0-.71-.08-1.24h6.5c0,3,0,5.87,0,8.71A126.2,126.2,0,0,1,305,660.9c-.7,5.7-5,9.4-10.72,10-5,.51-9.85,0-13.29-4.15-1.39-1.69-2.75-4-2.85-6C277.74,653.68,278,646.63,278,639.39Z" transform="translate(-116.96 -251.99)"/><path d="M188.08,641.57,186,645.69c-2-.66-4-1.65-6.14-1.9a17.37,17.37,0,0,0-6.7.45,4.53,4.53,0,0,0-2.53,3.11c-.16.86,1.07,2.49,2.05,2.91a65,65,0,0,0,8.17,2.54c3.07.83,5.91,2,7.36,5.07,2.29,4.83-.15,10.22-5.39,12.08-5.72,2-13.5,1-19-2.64.67-1.55,1.34-3.14,1.91-4.48,3.43,1,6.83,2,10.27,2.88a7.53,7.53,0,0,0,2.84,0c2.28-.31,3.74-1.66,3.84-3.61.11-2.21-1.56-3.06-3.26-3.63-2.85-1-5.81-1.59-8.63-2.63-4.47-1.65-6.66-4.63-6.47-8.44a8.56,8.56,0,0,1,4.12-6.93C173.93,636.91,182.82,637.41,188.08,641.57Z" transform="translate(-116.96 -251.99)"/><path d="M265.67,665.14c-6.09,7.52-17.29,7.36-23.53,3-6.69-4.72-8.79-14.8-4.5-22.19,2.69-4.64,7-7,12.28-7.57,5.08-.51,9.82.25,13.74,4,1.26,1.19,1.52,2.08-.13,3.05a5.67,5.67,0,0,0-1.41,1.06c-.86,1-1.45.68-2.35-.09-3.79-3.29-11-3.19-14.5.09a11.47,11.47,0,0,0-1.06,15.07c3.55,4.35,10.53,5.52,14.9,2,2.23-1.79,3.53-1.17,5.14.4C264.66,664.3,265.12,664.66,265.67,665.14Z" transform="translate(-116.96 -251.99)"/><path d="M413.09,639a54.67,54.67,0,0,1,5.75.07,3.12,3.12,0,0,1,1.87,1.47c2.6,4.35,5.11,8.76,7.83,13.47,1.74-2.83,3.37-5.46,5-8.11a12.52,12.52,0,0,0,1.09-1.91c1.74-4.26,4.44-6.82,9.56-5.2-1.52,2.6-3.13,5.35-4.75,8.09-2,3.36-3.88,6.78-6,10a10.22,10.22,0,0,0-1.71,6.44c.12,2.26,0,4.52,0,6.91H425.2c0-2.66.17-5.23-.06-7.76a12.15,12.15,0,0,0-1.38-4.72c-3.36-6-6.9-12-10.37-18A7.07,7.07,0,0,1,413.09,639Z" transform="translate(-116.96 -251.99)"/><path d="M404.21,639.06v5.3c-2.6,0-5.23.1-7.84,0-1.79-.1-2.26.56-2.24,2.28.08,7.88,0,15.76,0,23.85h-6.4v-26.1H377.6c.08-1.83.16-3.48.25-5.29Z" transform="translate(-116.96 -251.99)"/><path d="M366.25,639.07v31h-6.38c0-10,0-19.82,0-29.67,0-1.11.32-1.66,1.51-1.57C363,639,364.56,639,366.25,639.07Z" transform="translate(-116.96 -251.99)"/></svg>