<svg id="Layer_1" data-name="Layer 1" xmlns="http://www.w3.org/2000/svg" viewBox="0 0 165.44 45.7"><defs><style>.cls-1{fill:#fff;}</style></defs><path class="cls-1" d="M244.9,208.53c-.76,2.19-1.47,4.25-2.17,6.31-.43,1.25-.81,2.51-1.25,3.76a.68.68,0,0,1-.51.33c-1,0-1.95,0-2.92,0a.56.56,0,0,1-.63-.46c-.66-2.06-1.34-4.11-2-6.17q-1.42-4.25-2.87-8.5c0-.08-.05-.17-.11-.39,1.23,0,2.39,0,3.56,0,.11,0,.26.26.31.43Q237.9,209,239.5,214a2.6,2.6,0,0,0,.14.3c.2-.53.38-.95.52-1.39,1-3,2-6.05,3.06-9.08a.62.62,0,0,1,.45-.33c1,0,1.94,0,3,0l3.55,10.84h.13c1.19-3.59,2.37-7.18,3.56-10.81h3.52c-.22.69-.41,1.37-.63,2-1.49,4.34-3,8.68-4.47,13a.47.47,0,0,1-.54.39c-1,0-2,0-2.93,0a.54.54,0,0,1-.63-.44c-.81-2.49-1.64-5-2.47-7.47C245.45,210.26,245.2,209.46,244.9,208.53Z" transform="translate(-132.19 -196.32)"/><path class="cls-1" d="M193.69,210.88a4,4,0,0,1,2.52,5,3.63,3.63,0,0,1-2.85,2.71A15.26,15.26,0,0,1,190,219c-2.53.06-5.07,0-7.61,0l-.28,0V203.44c1.24,0,2.48,0,3.72,0,2,0,4,.05,6,.19a4,4,0,0,1,3.4,2.05C196.24,207.56,195.64,209.57,193.69,210.88Zm-8.13,5.42h3c.88,0,1.76,0,2.64-.1a1.69,1.69,0,0,0,1.61-1.47,1.73,1.73,0,0,0-1-1.91,3.67,3.67,0,0,0-1.42-.35c-1.5-.05-3,0-4.51,0a1.81,1.81,0,0,0-.31,0Zm0-10.22v3.82h4.05c.24,0,.48,0,.71-.06a4.56,4.56,0,0,0,.53-.13,1.78,1.78,0,0,0,1.23-1.72,1.6,1.6,0,0,0-1.37-1.68C189,206.17,187.3,206.15,185.57,206.08Z" transform="translate(-132.19 -196.32)"/><path class="cls-1" d="M216.29,219c-1.13,0-2.2,0-3.26,0a.71.71,0,0,1-.47-.33c-.41-.86-.79-1.74-1.15-2.62a.51.51,0,0,0-.56-.4c-2.18,0-4.37,0-6.56,0-.14,0-.33.18-.4.33-.36.78-.73,1.57-1,2.38a.9.9,0,0,1-1.06.68c-.89,0-1.79,0-2.8,0,.32-.77.59-1.44.88-2.11l5.37-12.26c.52-1.19.52-1.19,1.82-1.17.7,0,1.4,0,2.1,0a.7.7,0,0,1,.51.33q3.24,7.38,6.45,14.79A3.19,3.19,0,0,1,216.29,219Zm-8.66-12c-.84,2-1.65,4-2.47,5.94h5C209.27,210.85,208.47,208.93,207.63,206.91Z" transform="translate(-132.19 -196.32)"/><path class="cls-1" d="M276.93,219c-1.2,0-2.3,0-3.4,0a.81.81,0,0,1-.52-.45c-.35-.8-.67-1.63-1-2.45a.54.54,0,0,0-.61-.41c-2.17,0-4.34,0-6.51,0a.73.73,0,0,0-.51.34c-.41.85-.77,1.71-1.14,2.57a.55.55,0,0,1-.62.39c-1,0-2,0-3,0,.58-1.37,1.11-2.65,1.67-3.92,1.64-3.73,3.3-7.45,4.93-11.18a.5.5,0,0,1,.57-.36c.9,0,1.8.06,2.7,0,.56,0,.76.2.95.65q1.27,3,2.6,6C274.3,213.05,275.59,216,276.93,219Zm-6.2-6-2.5-6.07c-.9,2.12-1.74,4.08-2.59,6.07Z" transform="translate(-132.19 -196.32)"/><path class="cls-1" d="M219.9,203.47h9c0,1.46,0,2.87,0,4.28,0,2.22,0,4.45-.11,6.67a4.75,4.75,0,0,1-4.06,4.68,7.49,7.49,0,0,1-6-1.32c-.62-.47-.66-.77-.2-1.39s.95-1.16,1.37-1.66a12.35,12.35,0,0,0,2.13,1.29c1.93.7,3.19,0,3.23-2.13,0-2.48,0-5,0-7.51h-5.4Z" transform="translate(-132.19 -196.32)"/><path class="cls-1" d="M132.38,205.69l1.61-.1a57.38,57.38,0,0,0,8.17-1,49.28,49.28,0,0,0,9.13-2.76c.44-.19.88-.41,1.33-.58a.73.73,0,0,1,.48,0c1.45.56,2.88,1.2,4.35,1.68,1.91.62,3.86,1.12,5.79,1.66.54.15,1.09.26,1.68.41-.4.54-.77,1.07-1.17,1.57a.4.4,0,0,1-.36.07,56.72,56.72,0,0,1-8.3-2.41c-.72-.28-1.42-.6-2.14-.89a.48.48,0,0,0-.35,0,48.45,48.45,0,0,1-10.61,3.2,54.77,54.77,0,0,1-7.34.94c-.34,0-.41.15-.42.46a40,40,0,0,0,.21,6,31.19,31.19,0,0,0,2.85,9.89,32.68,32.68,0,0,0,6.6,9.16c1.17,1.15,2.46,2.17,3.69,3.24a1,1,0,0,0,.17.12c-.12-.78-.26-1.54-.36-2.31a16.39,16.39,0,0,1,.16-5,20.17,20.17,0,0,1,4-8.92,26.08,26.08,0,0,1,3.78-3.94c2.48-2.11,5-4.18,7.43-6.33a19.16,19.16,0,0,0,4.67-5.87,12,12,0,0,0,1.17-7.2.76.76,0,0,1,.05-.44c.2.58.44,1.15.61,1.73A13.28,13.28,0,0,1,169,206a19.51,19.51,0,0,1-3.91,6.63,67,67,0,0,1-6.48,6.24,34.24,34.24,0,0,0-5.6,6.06,16,16,0,0,0-2.78,6.8,15.1,15.1,0,0,0,.5,6.51c.3,1,.69,2,1,3l.2.59A47.61,47.61,0,0,1,140.25,232a34,34,0,0,1-5.2-8.22,32.59,32.59,0,0,1-2.5-8.82,42.72,42.72,0,0,1-.26-8.46C132.31,206.25,132.35,206,132.38,205.69Z" transform="translate(-132.19 -196.32)"/><path class="cls-1" d="M169.92,208.21c-.18,1-.3,2.07-.55,3.08a14.69,14.69,0,0,1-4.1,7c-1.66,1.64-3.43,3.18-5.18,4.74a20,20,0,0,0-4.93,6.32,14.35,14.35,0,0,0-1.35,6.86,16.65,16.65,0,0,0,1.22,5.48c0,.09.07.19.11.29l0,.06c-.27-.45-.53-.89-.8-1.32a15.73,15.73,0,0,1-2.41-6.25A13.38,13.38,0,0,1,154,225a22.06,22.06,0,0,1,5-5.36c2-1.56,4-3.08,5.92-4.68a14.77,14.77,0,0,0,4.19-5.09c.2-.43.36-.87.54-1.31,0-.11.1-.22.14-.33Z" transform="translate(-132.19 -196.32)"/><path class="cls-1" d="M155.56,240.13a14.25,14.25,0,0,1-.45-4.38,15.32,15.32,0,0,1,4.54-9.77,42.86,42.86,0,0,1,5-4.2,31.21,31.21,0,0,0,4.35-3.85,9.84,9.84,0,0,0,2.47-4.8,12.35,12.35,0,0,1,.28-1.45c0,.49.09,1,.09,1.49a12.79,12.79,0,0,1-3.77,9c-1.83,2-3.91,3.62-5.89,5.4A22.29,22.29,0,0,0,158,232.1a13.79,13.79,0,0,0-2.11,5.19C155.76,238.27,155.66,239.26,155.56,240.13Z" transform="translate(-132.19 -196.32)"/><path class="cls-1" d="M156.15,242a11.52,11.52,0,0,1,1.81-7,16.7,16.7,0,0,1,3.76-4.19c1.67-1.36,3.41-2.64,5.12-4a28.53,28.53,0,0,0,3.72-3.4,12.26,12.26,0,0,0,3.05-6.68,2.35,2.35,0,0,1,0,.37,14.75,14.75,0,0,1-4,10.55,39.48,39.48,0,0,1-5,4.37,42.21,42.21,0,0,0-5.71,5,11.63,11.63,0,0,0-2.62,4.78A2,2,0,0,1,156.15,242Z" transform="translate(-132.19 -196.32)"/><path class="cls-1" d="M145.91,212.83c1.16-.27,2.32-.57,3.5-.8a15.26,15.26,0,0,0,3.32-.91,8.89,8.89,0,0,0,3.53-2.49,8.11,8.11,0,0,1,.54-.74,10.88,10.88,0,0,1-.32,1.28,5.56,5.56,0,0,1-3.89,3.58c-1.64.47-3.33.75-5,1.15-.9.22-1.8.47-2.68.78a3.5,3.5,0,0,0-1.54,1.19,18.24,18.24,0,0,1-1.3,1.49c-.48.51-.93.62-1.34.4a1.46,1.46,0,0,1-.67-1.52,5.18,5.18,0,0,1,1.53-2.62,8.18,8.18,0,0,1,3.69-1.94,18.23,18.23,0,0,0,4.74-1.9,6.08,6.08,0,0,0,2.49-2.7c0-.09.06-.18.09-.26a.79.79,0,0,1,.14-.23,4.51,4.51,0,0,1-.37,2,6.72,6.72,0,0,1-3.92,3.25l-2.57.92Z" transform="translate(-132.19 -196.32)"/><path class="cls-1" d="M148.92,221.38c-.18-.38-.31-.68-.46-1a2.48,2.48,0,0,0-1.7-1.3,5.19,5.19,0,0,1-1.72-.84,4.09,4.09,0,0,0-1.28-.48c-.39-.13-.79-.21-1.24-.33a.84.84,0,0,1,.9-.26,1.93,1.93,0,0,0,2.26-.9c.21-.27.32-.61.51-.89a1.45,1.45,0,0,1,.47-.51,7.7,7.7,0,0,1,5.92-.71,10.59,10.59,0,0,0,2,.18.58.58,0,0,1,.33.06l-1.57.29.81,1a7.55,7.55,0,0,0-4.22-.36,2.33,2.33,0,0,1,2.41,1.33,2.61,2.61,0,0,0-2.87-.65,2.94,2.94,0,0,1,2.36,1.93,2.42,2.42,0,0,0-1.37-.79,26.22,26.22,0,0,0-2.81-.29l.77.16a3.45,3.45,0,0,1,1.62.75,2.22,2.22,0,0,1,.55.76,5.27,5.27,0,0,1,.25,1l-.07,0a2.1,2.1,0,0,0-1.53-1.27c-.59-.19-1.17-.4-1.76-.6a1.12,1.12,0,0,0-.36-.05,7.16,7.16,0,0,1,.88.43,1.68,1.68,0,0,1,.76,1.23C148.8,219.91,148.85,220.6,148.92,221.38Z" transform="translate(-132.19 -196.32)"/><path class="cls-1" d="M139.88,224.25c-1.1-1.67-1.79-3.39-.56-5.44a2,2,0,0,1,.26-.32,1,1,0,0,1,1-.37c.4.1.56.44.6.88l.25-.2a1.23,1.23,0,0,1,1.67-.14,8.21,8.21,0,0,1,3,3.53,6.82,6.82,0,0,1,.31,2.13,12.29,12.29,0,0,0-.73-1.52,3.5,3.5,0,0,0-2.1-1.65,3.2,3.2,0,0,0-3.4,1.17,2.26,2.26,0,0,0-.26,1.82S139.88,224.21,139.88,224.25Z" transform="translate(-132.19 -196.32)"/><path class="cls-1" d="M259.23,237.79c-1.05,0-1.93.05-2.8,0a1.4,1.4,0,0,1-.92-.54c-.7-1-1.31-2.08-2-3.09a1.38,1.38,0,0,0-.87-.59c-1.05-.07-2.1,0-3.26,0v4.2h-3.07V222.8c2.87,0,5.69-.16,8.47,0A5,5,0,0,1,259,227a5.26,5.26,0,0,1-2.92,5.9c.5.8,1,1.6,1.5,2.39S258.62,236.86,259.23,237.79Zm-9.76-12.41v5.28c1.41,0,2.67,0,3.93,0a2.37,2.37,0,0,0,2.5-2.43,2.5,2.5,0,0,0-2.25-2.82C252.26,225.29,250.86,225.38,249.47,225.38Z" transform="translate(-132.19 -196.32)"/><path class="cls-1" d="M197.2,222.63H208a.88.88,0,0,1,.27.1v2.49h-8.06v3.62H207v2.53h-6.82v3.87h8.25v2.53H197.2Z" transform="translate(-132.19 -196.32)"/><path class="cls-1" d="M228.69,223h3v2.56c0,2,0,4.09,0,6.13.06,2.71,1.75,4.12,4.34,3.67a3.09,3.09,0,0,0,2.66-3.19c.08-2.92,0-5.85.05-8.77,0-.17,0-.34,0-.59h3.11c0,1.44,0,2.8,0,4.16a60.39,60.39,0,0,1-.21,6.32,5.41,5.41,0,0,1-5.13,4.77c-2.39.25-4.71,0-6.35-2a5.4,5.4,0,0,1-1.37-2.88C228.59,229.79,228.69,226.41,228.69,223Z" transform="translate(-132.19 -196.32)"/><path class="cls-1" d="M193.62,224l-1,2a15.83,15.83,0,0,0-2.94-.91,8.4,8.4,0,0,0-3.2.21,2.18,2.18,0,0,0-1.22,1.49c-.07.41.52,1.19,1,1.39a30.93,30.93,0,0,0,3.9,1.22c1.47.4,2.83.95,3.53,2.42a4.18,4.18,0,0,1-2.59,5.78,10.89,10.89,0,0,1-9.07-1.26l.91-2.15c1.64.47,3.27,1,4.92,1.38a3.6,3.6,0,0,0,1.35,0,1.89,1.89,0,0,0,1.84-1.73c0-1-.75-1.46-1.56-1.73-1.36-.46-2.78-.76-4.13-1.26-2.14-.79-3.18-2.21-3.09-4a4.08,4.08,0,0,1,2-3.31A8.65,8.65,0,0,1,193.62,224Z" transform="translate(-132.19 -196.32)"/><path class="cls-1" d="M225.45,235.27c-2.91,3.6-8.27,3.52-11.25,1.41a8.25,8.25,0,0,1-2.15-10.61,7.23,7.23,0,0,1,5.87-3.62,7.83,7.83,0,0,1,6.57,1.89c.6.58.73,1-.06,1.46a2.82,2.82,0,0,0-.68.51c-.41.46-.69.33-1.12,0a5.67,5.67,0,0,0-6.93,0,5.49,5.49,0,0,0-.51,7.21,5.26,5.26,0,0,0,7.12,1c1.07-.85,1.69-.56,2.46.19C225,234.87,225.19,235,225.45,235.27Z" transform="translate(-132.19 -196.32)"/><path class="cls-1" d="M282.78,222.79a24.88,24.88,0,0,1,2.74,0,1.5,1.5,0,0,1,.9.7c1.24,2.08,2.44,4.19,3.74,6.44l2.38-3.87a7.06,7.06,0,0,0,.53-.92c.83-2,2.12-3.26,4.57-2.48l-2.27,3.87c-.95,1.6-1.86,3.24-2.88,4.8a4.9,4.9,0,0,0-.82,3.08c.06,1.07,0,2.16,0,3.3h-3.12c0-1.27.07-2.5,0-3.71a5.75,5.75,0,0,0-.67-2.26c-1.6-2.89-3.29-5.73-4.95-8.59A2.24,2.24,0,0,1,282.78,222.79Z" transform="translate(-132.19 -196.32)"/><path class="cls-1" d="M281.16,222.8v2.53c-1.24,0-2.5,0-3.75,0-.85,0-1.08.27-1.07,1.09,0,3.77,0,7.54,0,11.4h-3.07V225.32h-4.85l.11-2.52Z" transform="translate(-132.19 -196.32)"/><path class="cls-1" d="M265.64,222.8v14.83h-3.05c0-4.77,0-9.48,0-14.19,0-.53.16-.79.73-.75C264.07,222.74,264.84,222.77,265.64,222.8Z" transform="translate(-132.19 -196.32)"/></svg>