<svg id="Layer_1" data-name="Layer 1" xmlns="http://www.w3.org/2000/svg" viewBox="0 0 176.98 48.89"><path d="M252.75,209.39c-.8,2.34-1.57,4.53-2.32,6.74-.45,1.34-.86,2.69-1.33,4a.74.74,0,0,1-.55.36c-1,0-2.08,0-3.12,0a.59.59,0,0,1-.67-.49c-.71-2.2-1.44-4.4-2.17-6.6l-3.07-9.09-.13-.42c1.32,0,2.57,0,3.81,0,.12,0,.28.28.34.46q1.72,5.4,3.44,10.82a2.86,2.86,0,0,0,.15.33c.21-.57.4-1,.56-1.49,1.09-3.24,2.16-6.48,3.27-9.71a.66.66,0,0,1,.48-.36c1,0,2.08,0,3.16,0q1.89,5.79,3.8,11.59h.14q1.89-5.76,3.8-11.57h3.77c-.23.74-.44,1.47-.68,2.18l-4.78,13.92a.5.5,0,0,1-.58.42c-1,0-2.09,0-3.13,0a.58.58,0,0,1-.67-.47c-.87-2.67-1.76-5.33-2.65-8C253.34,211.23,253.07,210.38,252.75,209.39Z" transform="translate(-132.19 -196.32)"/><path d="M198,211.89a4.34,4.34,0,0,1,2.69,5.35,3.86,3.86,0,0,1-3,2.9,15.67,15.67,0,0,1-3.61.47c-2.71.07-5.43,0-8.14,0a2.8,2.8,0,0,1-.3,0V203.94c1.32,0,2.65,0,4,0,2.14.05,4.28.06,6.42.21a4.25,4.25,0,0,1,3.63,2.19C200.7,208.34,200.07,210.49,198,211.89Zm-8.7,5.81c1.11,0,2.15,0,3.19,0s1.88,0,2.82-.1A1.82,1.82,0,0,0,197,216a1.87,1.87,0,0,0-1.06-2,4.05,4.05,0,0,0-1.52-.38c-1.61-.05-3.22,0-4.83,0a2.1,2.1,0,0,0-.33.06Zm0-10.93v4.07h4.33a4.77,4.77,0,0,0,.76-.06,3.39,3.39,0,0,0,.57-.14,1.91,1.91,0,0,0,1.32-1.83,1.74,1.74,0,0,0-1.46-1.81C193,206.85,191.14,206.84,189.29,206.77Z" transform="translate(-132.19 -196.32)"/><path d="M222.16,220.53c-1.22,0-2.36,0-3.5,0a.65.65,0,0,1-.49-.35c-.44-.92-.85-1.85-1.24-2.8a.54.54,0,0,0-.59-.42c-2.34,0-4.68,0-7,0-.15,0-.36.2-.43.36-.39.84-.78,1.68-1.09,2.54a1,1,0,0,1-1.13.73c-.95-.05-1.91,0-3,0,.34-.82.63-1.54.94-2.26l5.74-13.11c.56-1.28.56-1.27,1.95-1.25.75,0,1.5,0,2.24,0a.77.77,0,0,1,.56.35q3.46,7.91,6.9,15.82Zm-9.27-12.88c-.9,2.18-1.77,4.25-2.64,6.35h5.29Z" transform="translate(-132.19 -196.32)"/><path d="M287,220.55c-1.29,0-2.46,0-3.64,0a.86.86,0,0,1-.55-.48c-.38-.86-.72-1.74-1.05-2.62a.6.6,0,0,0-.65-.45c-2.32,0-4.64,0-7,0a.78.78,0,0,0-.55.37c-.43.9-.82,1.82-1.21,2.74a.59.59,0,0,1-.66.42c-1.06,0-2.11,0-3.25,0,.62-1.46,1.19-2.83,1.79-4.19,1.75-4,3.53-8,5.27-12a.55.55,0,0,1,.61-.38c1,0,1.93.06,2.89,0,.6,0,.82.21,1,.7q1.37,3.23,2.78,6.43C284.21,214.22,285.59,217.32,287,220.55Zm-6.63-6.43c-.89-2.17-1.76-4.26-2.68-6.49-1,2.26-1.86,4.36-2.77,6.49Z" transform="translate(-132.19 -196.32)"/><path d="M226,204h9.66c0,1.56,0,3.07,0,4.57,0,2.38,0,4.77-.12,7.14a5.07,5.07,0,0,1-4.33,5,8,8,0,0,1-6.42-1.41c-.66-.5-.71-.82-.2-1.48s1-1.24,1.46-1.78a13.38,13.38,0,0,0,2.27,1.38c2.07.76,3.41,0,3.46-2.27,0-2.65,0-5.31,0-8H226Z" transform="translate(-132.19 -196.32)"/><path d="M132.39,206.34l1.73-.11a59.83,59.83,0,0,0,8.74-1.1,52,52,0,0,0,9.76-2.95c.48-.2.94-.44,1.42-.62a.78.78,0,0,1,.52,0c1.55.6,3.07,1.29,4.66,1.81,2,.66,4.12,1.19,6.18,1.76.58.16,1.17.29,1.8.44-.43.58-.82,1.15-1.25,1.69a.46.46,0,0,1-.39.07,59.25,59.25,0,0,1-8.87-2.58c-.78-.29-1.52-.65-2.29-.95a.48.48,0,0,0-.37,0,51.78,51.78,0,0,1-11.35,3.43,59.33,59.33,0,0,1-7.85,1c-.37,0-.45.16-.46.5a44.18,44.18,0,0,0,.22,6.4,33.68,33.68,0,0,0,3,10.57,35.19,35.19,0,0,0,7.06,9.81c1.26,1.22,2.63,2.32,4,3.47l.17.12c-.13-.83-.28-1.65-.38-2.47a17.73,17.73,0,0,1,.17-5.39,21.55,21.55,0,0,1,4.23-9.54,28.81,28.81,0,0,1,4.05-4.21c2.65-2.26,5.34-4.48,7.95-6.78a20.6,20.6,0,0,0,5-6.28,12.82,12.82,0,0,0,1.24-7.7.87.87,0,0,1,0-.47c.23.62.48,1.23.66,1.85a14.3,14.3,0,0,1-.27,8.49,21.34,21.34,0,0,1-4.19,7.1,71.57,71.57,0,0,1-6.93,6.67,36.58,36.58,0,0,0-6,6.49,17.22,17.22,0,0,0-3,7.26,16.27,16.27,0,0,0,.54,7c.32,1.07.74,2.11,1.11,3.17.07.19.13.38.22.63a50.8,50.8,0,0,1-12.5-10.45,36.3,36.3,0,0,1-5.56-8.79,34.77,34.77,0,0,1-2.67-9.44,44.17,44.17,0,0,1-.28-9.05C132.32,206.94,132.36,206.66,132.39,206.34Z" transform="translate(-132.19 -196.32)"/><path d="M172.55,209c-.19,1.1-.32,2.21-.58,3.29a15.66,15.66,0,0,1-4.39,7.48c-1.78,1.76-3.68,3.41-5.55,5.07a21.55,21.55,0,0,0-5.27,6.76,15.35,15.35,0,0,0-1.44,7.34,17.62,17.62,0,0,0,1.3,5.86l.12.31,0,.06c-.29-.48-.57-1-.86-1.41a16.81,16.81,0,0,1-2.58-6.68,14.37,14.37,0,0,1,2.24-10.18,23.78,23.78,0,0,1,5.37-5.73c2.11-1.67,4.26-3.29,6.33-5a15.77,15.77,0,0,0,4.48-5.45c.22-.46.39-.94.58-1.4l.15-.35Z" transform="translate(-132.19 -196.32)"/><path d="M157.18,243.18a15.91,15.91,0,0,1-.48-4.69,16.46,16.46,0,0,1,4.86-10.44,47.11,47.11,0,0,1,5.36-4.5,33.69,33.69,0,0,0,4.66-4.11,10.57,10.57,0,0,0,2.64-5.14,10.85,10.85,0,0,1,.3-1.55c0,.53.09,1.06.09,1.59a13.58,13.58,0,0,1-4,9.58c-2,2.1-4.18,3.88-6.3,5.79a24.26,24.26,0,0,0-4.45,4.88,14.64,14.64,0,0,0-2.26,5.55C157.4,241.19,157.3,242.25,157.18,243.18Z" transform="translate(-132.19 -196.32)"/><path d="M157.82,245.14a12.29,12.29,0,0,1,1.94-7.52,17.87,17.87,0,0,1,4-4.48c1.8-1.45,3.66-2.82,5.48-4.23a30,30,0,0,0,4-3.65,13.15,13.15,0,0,0,3.26-7.14c0,.13.05.27.05.4a15.83,15.83,0,0,1-4.33,11.29,42.18,42.18,0,0,1-5.4,4.67,46.71,46.71,0,0,0-6.11,5.31,12.58,12.58,0,0,0-2.79,5.12Z" transform="translate(-132.19 -196.32)"/><path d="M146.86,214c1.25-.29,2.49-.61,3.75-.85a16.93,16.93,0,0,0,3.56-1,9.55,9.55,0,0,0,3.77-2.66,7.81,7.81,0,0,1,.57-.79,12.46,12.46,0,0,1-.34,1.37A6,6,0,0,1,154,213.9c-1.75.5-3.56.8-5.33,1.23a28.52,28.52,0,0,0-2.87.83,3.75,3.75,0,0,0-1.65,1.28,20.67,20.67,0,0,1-1.39,1.58c-.51.55-1,.67-1.44.43a1.55,1.55,0,0,1-.71-1.62,5.59,5.59,0,0,1,1.64-2.8,8.68,8.68,0,0,1,4-2.08,19.64,19.64,0,0,0,5.06-2,6.44,6.44,0,0,0,2.67-2.89c0-.09.06-.19.1-.28a.6.6,0,0,1,.15-.25,5,5,0,0,1-.4,2.19,7.2,7.2,0,0,1-4.2,3.47c-.92.32-1.83.66-2.74,1Z" transform="translate(-132.19 -196.32)"/><path d="M150.08,223.12c-.19-.4-.33-.72-.48-1a2.68,2.68,0,0,0-1.82-1.39,5.48,5.48,0,0,1-1.85-.9,4.52,4.52,0,0,0-1.36-.52c-.42-.13-.85-.22-1.33-.34a.88.88,0,0,1,1-.29,2.06,2.06,0,0,0,2.42-1,10,10,0,0,0,.55-1,1.53,1.53,0,0,1,.5-.54,8.23,8.23,0,0,1,6.33-.75,12.12,12.12,0,0,0,2.09.18.72.72,0,0,1,.37.07l-1.69.31.87,1.09a8.06,8.06,0,0,0-4.52-.38,2.49,2.49,0,0,1,2.58,1.42,2.76,2.76,0,0,0-3.06-.69,3.13,3.13,0,0,1,2.52,2.06,2.64,2.64,0,0,0-1.46-.85c-1-.15-2-.26-3-.31.27.06.55.13.82.17a3.69,3.69,0,0,1,1.73.81,2.24,2.24,0,0,1,.59.82,5.84,5.84,0,0,1,.27,1c-.06,0-.08,0-.08,0a2.25,2.25,0,0,0-1.63-1.36l-1.89-.63a1.27,1.27,0,0,0-.39-.06,7.58,7.58,0,0,1,.95.46,1.78,1.78,0,0,1,.81,1.32C150,221.56,150,222.29,150.08,223.12Z" transform="translate(-132.19 -196.32)"/><path d="M140.42,226.2c-1.18-1.79-1.92-3.63-.6-5.82a2.33,2.33,0,0,1,.27-.35,1.08,1.08,0,0,1,1.06-.39.93.93,0,0,1,.65.94l.27-.22a1.31,1.31,0,0,1,1.78-.14A8.75,8.75,0,0,1,147,224a7.29,7.29,0,0,1,.33,2.29,11.62,11.62,0,0,0-.79-1.64,3.69,3.69,0,0,0-2.24-1.76,3.42,3.42,0,0,0-3.63,1.25,2.37,2.37,0,0,0-.28,2A.53.53,0,0,0,140.42,226.2Z" transform="translate(-132.19 -196.32)"/><path d="M268.08,240.68c-1.11,0-2.06,0-3,0a1.52,1.52,0,0,1-1-.58c-.76-1.08-1.41-2.23-2.16-3.31a1.5,1.5,0,0,0-.94-.62c-1.12-.08-2.24,0-3.48,0v4.5h-3.29v-16c3.08,0,6.09-.16,9.07.05a5.36,5.36,0,0,1,4.54,4.43,5.64,5.64,0,0,1-3.12,6.32c.53.85,1.06,1.71,1.6,2.56S267.43,239.68,268.08,240.68ZM257.64,227.4v5.65c1.51,0,2.86,0,4.21,0a2.55,2.55,0,0,0,2.68-2.6,2.68,2.68,0,0,0-2.41-3C260.64,227.3,259.13,227.4,257.64,227.4Z" transform="translate(-132.19 -196.32)"/><path d="M201.74,224.46h11.54a.88.88,0,0,1,.3.1v2.67H205v3.87h7.29v2.7H205V238h8.82v2.7h-12Z" transform="translate(-132.19 -196.32)"/><path d="M235.42,224.81h3.18v2.73c0,2.19,0,4.38,0,6.56.06,2.9,1.86,4.41,4.63,3.92a3.29,3.29,0,0,0,2.85-3.41c.09-3.12,0-6.25.06-9.37,0-.19,0-.37,0-.64h3.33c0,1.54,0,3,0,4.46a66.19,66.19,0,0,1-.22,6.76,5.78,5.78,0,0,1-5.49,5.1c-2.56.26-5,0-6.8-2.12a5.82,5.82,0,0,1-1.45-3.09C235.31,232.12,235.42,228.51,235.42,224.81Z" transform="translate(-132.19 -196.32)"/><path d="M197.9,225.93l-1.06,2.1a17.22,17.22,0,0,0-3.14-1,8.81,8.81,0,0,0-3.43.23,2.34,2.34,0,0,0-1.3,1.59,2,2,0,0,0,1.06,1.49,33,33,0,0,0,4.17,1.3c1.57.43,3,1,3.77,2.59a4.47,4.47,0,0,1-2.76,6.18,11.64,11.64,0,0,1-9.7-1.35l1-2.29c1.76.5,3.5,1,5.26,1.47a3.72,3.72,0,0,0,1.45,0,2,2,0,0,0,2-1.84c.06-1.13-.8-1.57-1.67-1.86-1.45-.49-3-.81-4.41-1.34-2.29-.85-3.41-2.37-3.31-4.32a4.39,4.39,0,0,1,2.11-3.55A9.24,9.24,0,0,1,197.9,225.93Z" transform="translate(-132.19 -196.32)"/><path d="M232,238c-3.11,3.85-8.84,3.77-12,1.51a8.83,8.83,0,0,1-2.3-11.35,7.78,7.78,0,0,1,6.29-3.87,8.37,8.37,0,0,1,7,2c.65.61.78,1.06-.06,1.56a2.77,2.77,0,0,0-.72.54c-.45.5-.75.35-1.21-.05a6.08,6.08,0,0,0-7.41.05,5.86,5.86,0,0,0-.54,7.71,5.63,5.63,0,0,0,7.61,1c1.15-.91,1.81-.6,2.63.21C231.44,237.55,231.67,237.74,232,238Z" transform="translate(-132.19 -196.32)"/><path d="M293.27,224.63a28.56,28.56,0,0,1,2.94,0,1.6,1.6,0,0,1,1,.75c1.33,2.23,2.61,4.48,4,6.89.89-1.45,1.73-2.8,2.55-4.15a6.35,6.35,0,0,0,.56-1c.89-2.17,2.27-3.48,4.89-2.65-.78,1.32-1.6,2.73-2.43,4.13-1,1.72-2,3.47-3.07,5.14a5.16,5.16,0,0,0-.88,3.29c.06,1.16,0,2.31,0,3.54h-3.33c0-1.36.08-2.68,0-4a6.34,6.34,0,0,0-.71-2.42c-1.72-3.09-3.53-6.13-5.3-9.19A3.36,3.36,0,0,1,293.27,224.63Z" transform="translate(-132.19 -196.32)"/><path d="M291.55,224.64v2.71c-1.33,0-2.68.06-4,0-.92-.05-1.16.29-1.15,1.17,0,4,0,8.06,0,12.2h-3.28V227.34h-5.2l.13-2.7Z" transform="translate(-132.19 -196.32)"/><path d="M275,224.65v15.86h-3.27c0-5.1,0-10.14,0-15.18,0-.57.17-.85.78-.8C273.26,224.59,274.08,224.61,275,224.65Z" transform="translate(-132.19 -196.32)"/></svg>